# xmcd CD database file
# Generated: Die Feb 17 00:58:46 2004 by KSCD
# 
# Track frame offsets:
#       150
#       12602
#       26700
#       41235
#       51462
#       62377
#       71915
#       89105
#       99870
#       108467
#       119937
#       131675
#       144037
#       156247
#       165620
#
# Disc length: 2372 seconds
#
# Revision: 9
# Processed by: cddbd v1.5PL3 Copyright (c) Steve Scherf et al.
# Submitted via: Kscd 1.3.3
#
DISCID=df09420f
DTITLE=Various Artist - Country Classics Vol. 2
DYEAR=1900
DGENRE=Country
TTITLE0=Kenny Rogers - Reuben James
TTITLE1=George Jones - A Good Year For The Roses
TTITLE2=Anne Murray - Both Sides Now
TTITLE3=Faron Young - Hello Walls
TTITLE4=Donna Fargo - Wishful Thinking
TTITLE5=Willie Nelson - Building Heartaches
TTITLE6=Johnny Paycheck - Billy Jack Washburn
TTITLE7=Waylon Jennings - Sally Was A Good Old Girl
TTITLE8=Conway Twitty - Blue Is The Way I Feel
TTITLE9=B.J. Thomas - How Many Tears Will It Take
TTITLE10=Willie Nelson - Is There Something On Your Mind
TTITLE11=Willie Nelson - The Shelter Of My Arms
TTITLE12=Stonewall Jackson - Ol? Blue
TTITLE13=George Jones - The Race Is On
TTITLE14=Faron Young - Four In The Morning
EXTD=
EXTT0=
EXTT1=
EXTT2=
EXTT3=
EXTT4=
EXTT5=
EXTT6=
EXTT7=
EXTT8=
EXTT9=
EXTT10=
EXTT11=
EXTT12=
EXTT13=
EXTT14=
PLAYORDER=
